<svg xmlns="http://www.w3.org/2000/svg" version="1.1" xmlns:xlink="http://www.w3.org/1999/xlink" width="1000" height="1000"><metadata><rdf:RDF xmlns:rdf="http://www.w3.org/1999/02/22-rdf-syntax-ns#" xmlns:dc="http://purl.org/dc/elements/1.1/"><rdf:Description><dc:creator>RealFaviconGenerator</dc:creator><dc:source>https://realfavicongenerator.net</dc:source></rdf:Description></rdf:RDF></metadata><style>
    #light-icon {
      display: inline;
    }
    #dark-icon {
      display: none;
    }

    @media (prefers-color-scheme: dark) {
      #light-icon {
        display: none;
      }
      #dark-icon {
        display: inline;
      }
    }
  </style><g id="light-icon"><svg xmlns="http://www.w3.org/2000/svg" version="1.1" xmlns:xlink="http://www.w3.org/1999/xlink" width="1000" height="1000"><g clip-path="url(#SvgjsClipPath1208)"><rect width="1000" height="1000" fill="#000000"></rect><g transform="matrix(2.3266635644485807,0,0,2.3266635644485807,150,235.03955328059567)"><svg xmlns="http://www.w3.org/2000/svg" id="Layer_2" data-name="Layer 2" viewBox="0 0 300.86 227.76" width="300.86" height="227.76"><defs>
    <style>
      .cls-1 {
        fill: #ff9100;
      }

      .cls-2 {
        fill: #fff;
      }
    </style>
  <clipPath id="SvgjsClipPath1208"><rect width="1000" height="1000" x="0" y="0" rx="350" ry="350"></rect></clipPath></defs><g id="Layer_1-2" data-name="Layer 1">
    <polygon class="cls-1" points="300.86 225.98 238.19 227.76 140.41 116.65 203.97 115.76 300.86 225.98"></polygon>
    <path class="cls-2" d="M167.48,181.46h-54.18c-11.03,0-21.97-2.48-31.74-7.6-12.44-6.52-26.02-18.59-32.16-40.91-3.38-12.28-3.29-25.3.6-37.43,4.94-15.41,16.58-35.9,44-45.09,5.06-1.7,10.37-2.52,15.7-2.52h83.03c8.14,0,16.2,2.01,23.2,6.15,12.47,7.36,25.73,22.88,13.11,54.3l32,38.22s22.22-27.26,19.85-64c0,0-.66-51.8-47.23-74.03C222.3,3.12,209.81.5,197.23.44L119.28,0c-26.36-.15-52.2,7.91-73.53,23.4C22.53,40.26.31,64.63,0,117.53c0,0,1.19,96.89,103.7,109.93l24,.3,39.78-46.3Z"></path>
  </g></svg></g></g></svg></g><g id="dark-icon"><svg xmlns="http://www.w3.org/2000/svg" version="1.1" xmlns:xlink="http://www.w3.org/1999/xlink" width="1000" height="1000"><g><g transform="matrix(3.323805092069401,0,0,3.323805092069401,-5.684341886080802e-14,121.48507611513662)"><svg xmlns="http://www.w3.org/2000/svg" id="Layer_2" data-name="Layer 2" viewBox="0 0 300.86 227.76" width="300.86" height="227.76"><defs>
    <style>
      .cls-1 {
        fill: #ff9100;
      }

      .cls-2 {
        fill: #010204;
      }
    </style>
  </defs><g id="Layer_1-2" data-name="Layer 1">
    <polygon class="cls-1" points="300.86 225.98 238.19 227.76 140.41 116.65 203.97 115.76 300.86 225.98"></polygon>
    <path class="cls-2" d="M167.48,181.46h-54.18c-11.03,0-21.97-2.48-31.74-7.6-12.44-6.52-26.02-18.59-32.16-40.91-3.38-12.28-3.29-25.3.6-37.43,4.94-15.41,16.58-35.9,44-45.09,5.06-1.7,10.37-2.52,15.7-2.52h83.03c8.14,0,16.2,2.01,23.2,6.15,12.47,7.36,25.73,22.88,13.11,54.3l32,38.22s22.22-27.26,19.85-64c0,0-.66-51.8-47.23-74.03C222.3,3.12,209.81.5,197.23.44L119.28,0c-26.36-.15-52.2,7.91-73.53,23.4C22.53,40.26.31,64.63,0,117.53c0,0,1.19,96.89,103.7,109.93l24,.3,39.78-46.3Z"></path>
  </g></svg></g></g></svg></g></svg>